<svg width="40" height="40" viewBox="0 0 40 40" fill="none" xmlns="http://www.w3.org/2000/svg">
<path d="M16.8751 35H18.1251V36.25H16.8751V35ZM18.7501 9.375C18.7501 9.25894 18.7177 9.14517 18.6567 9.04644C18.5957 8.94771 18.5084 8.86793 18.4046 8.81602L15.9046 7.56602L15.3455 8.68398L16.7275 9.375L15.3455 10.066L15.9046 11.184L18.4046 9.93398C18.5084 9.88208 18.5957 9.80229 18.6567 9.70356C18.7177 9.60483 18.7501 9.49106 18.7501 9.375ZM21.5955 9.93398L24.0955 11.184L24.6546 10.066L23.2726 9.375L24.6546 8.68398L24.0955 7.56602L21.5955 8.81602C21.4917 8.86793 21.4044 8.94772 21.3434 9.04645C21.2824 9.14518 21.2501 9.25894 21.2501 9.375C21.2501 9.49106 21.2824 9.60482 21.3434 9.70355C21.4044 9.80228 21.4917 9.88207 21.5955 9.93398ZM2.64452 8.63711C2.61491 8.79991 2.62521 8.96747 2.67455 9.12541C2.72389 9.28336 2.81079 9.42699 2.9278 9.54399L3.75007 10.3662L8.12507 5.99117V3.4375C8.12507 3.35462 8.09214 3.27513 8.03354 3.21653C7.97493 3.15792 7.89545 3.125 7.81257 3.125C7.72969 3.125 7.6502 3.15792 7.5916 3.21653C7.53299 3.27513 7.50007 3.35462 7.50007 3.4375V3.75C7.50007 3.86313 7.46936 3.97413 7.41122 4.07118C7.35309 4.16822 7.2697 4.24767 7.16996 4.30105C7.07021 4.35442 6.95785 4.37973 6.84486 4.37426C6.73186 4.36879 6.62247 4.33276 6.52835 4.27L5.06866 3.29688C4.95648 3.22215 4.83066 3.17032 4.6984 3.14434C4.56614 3.11836 4.43006 3.11875 4.29795 3.1455C4.16585 3.17224 4.04032 3.2248 3.92858 3.30017C3.81683 3.37553 3.72107 3.47222 3.64679 3.58469L2.60366 2.89547C2.76866 2.64562 2.98139 2.43083 3.22963 2.26342C3.47786 2.09602 3.75673 1.97929 4.0502 1.91996C4.34368 1.86062 4.64598 1.85984 4.93976 1.91766C5.23353 1.97548 5.513 2.09075 5.7621 2.25688L6.43311 2.70422C6.59681 2.3965 6.85871 2.15235 7.17714 2.0106C7.49557 1.86885 7.85225 1.83764 8.19046 1.92194C8.52867 2.00624 8.82898 2.2012 9.04363 2.47582C9.25828 2.75044 9.37494 3.08895 9.37507 3.4375V5.97656L11.3372 7.78781C11.6957 7.59896 12.0948 7.50019 12.5001 7.5H12.7375C12.8982 6.87586 13.1395 6.27527 13.4551 5.71336C13.0464 5.39227 12.748 4.95173 12.6015 4.45307C12.455 3.95441 12.4676 3.42247 12.6376 2.93132C12.8076 2.44017 13.1265 2.01425 13.55 1.71289C13.9734 1.41153 14.4803 1.24972 15.0001 1.25H21.8751C23.3664 1.25168 24.7962 1.84485 25.8507 2.89937C26.9052 3.9539 27.4984 5.38367 27.5001 6.875V7.5C27.9601 7.50006 28.4113 7.62708 28.8038 7.86706C29.1963 8.10704 29.515 8.45068 29.7248 8.86014C29.9345 9.26961 30.0272 9.72902 29.9927 10.1878C29.9581 10.6466 29.7976 11.0869 29.5289 11.4603C31.1932 11.6082 32.7419 12.3738 33.8702 13.6063C34.9984 14.8388 35.6244 16.4489 35.6251 18.1198C35.6251 20.4263 35.6928 22.746 35.4754 25.0448C35.3961 25.8917 35.2815 26.7537 35.1347 27.606L33.9028 27.394C34.0441 26.5731 34.1545 25.7434 34.2309 24.9277C34.4341 22.6643 34.3751 20.3898 34.3751 18.1198C34.3751 17.168 34.1251 16.2328 33.6501 15.4079C33.1751 14.583 32.4917 13.8974 31.6684 13.4196C30.8451 12.9418 29.9108 12.6887 28.9589 12.6855C28.0071 12.6824 27.071 12.9293 26.2446 13.4016L24.6851 14.2927C24.5907 14.3466 24.4838 14.375 24.3751 14.375H16.8751C16.7179 14.375 16.5666 14.3158 16.4512 14.2092L8.76741 7.11656L4.63389 11.25L5.93757 12.5537L8.93311 9.55805L9.81702 10.442L6.8214 13.4375L13.3526 19.9688C13.758 20.3763 14.2401 20.6993 14.7712 20.9193C15.3022 21.1392 15.8716 21.2516 16.4464 21.25H28.7501V22.5H22.7012C22.881 22.6314 23.0392 22.79 23.17 22.9702L25.0332 25.5341C25.3596 25.9941 25.4931 26.5636 25.4049 27.1206C25.3167 27.6777 25.014 28.1782 24.5615 28.5148L24.5537 28.5202L20.6251 31.287V37.5H31.9829L33.6719 28.6328L34.9001 28.8672L33.1141 38.2422C33.0868 38.385 33.0105 38.5139 32.8985 38.6066C32.7864 38.6993 32.6455 38.75 32.5001 38.75H10.6251C8.96804 38.7481 7.37942 38.089 6.20773 36.9173C5.03603 35.7456 4.37695 34.157 4.37507 32.5V19.375C4.3744 17.9487 4.74942 16.5473 5.46241 15.312L6.54436 15.938C5.9414 16.9831 5.62433 18.1685 5.62507 19.375V30.8424L10.6251 28.2252V22.7344H11.8751V27.5709L13.4802 26.7306L14.5922 22.7288C14.6378 22.5623 14.7054 22.4027 14.7933 22.2541C13.9152 21.9847 13.1169 21.5034 12.4688 20.8525L2.04389 10.4277C1.78404 10.1678 1.59105 9.84878 1.48147 9.49796C1.37188 9.14713 1.34897 8.77498 1.41468 8.41336L2.16921 4.2632L3.39905 4.4868L2.64452 8.63711ZM14.3039 34.4574L11.9801 30.9717L13.0201 30.2783L15.2916 33.6857L17.0276 32.3293L16.9494 32.2234L13.8237 27.9617L5.62507 32.2533V32.5C5.62667 33.7894 6.1258 35.0285 7.01845 35.959C7.91109 36.8895 9.12838 37.4396 10.4166 37.4947L14.3039 34.4574ZM19.3751 32.1673L18.2623 32.9509L12.4401 37.5H19.3751V32.1673ZM18.2617 22.5C18.4 22.8312 18.4433 23.1944 18.3867 23.5488L18.3403 23.8421L19.3751 23.0903V22.5H18.2617ZM15.7969 23.0614L14.6932 27.0338L17.5845 30.9754L18.0314 31.5848L23.8298 27.5015C24.0182 27.3633 24.1443 27.156 24.1803 26.925C24.2163 26.6941 24.1594 26.4583 24.0219 26.2692L22.1587 23.7053C22.0209 23.5158 21.8135 23.3887 21.582 23.3521C21.3505 23.3155 21.114 23.3723 20.9244 23.51L17.8548 25.7406C17.7548 25.8132 17.6356 25.8545 17.5121 25.8593C17.3887 25.8641 17.2666 25.8322 17.1612 25.7676C17.0559 25.7031 16.9721 25.6087 16.9203 25.4966C16.8686 25.3844 16.8512 25.2594 16.8705 25.1373L17.1527 23.3538C17.1803 23.1785 17.1398 22.9994 17.0395 22.8531C16.9392 22.7068 16.7866 22.6044 16.6132 22.567C16.4398 22.5297 16.2586 22.5601 16.107 22.6521C15.9553 22.7441 15.8446 22.8907 15.7976 23.0617L15.7969 23.0614ZM27.5001 11.25C27.8316 11.25 28.1495 11.1183 28.384 10.8839C28.6184 10.6495 28.7501 10.3315 28.7501 10C28.7501 9.66848 28.6184 9.35054 28.384 9.11612C28.1495 8.8817 27.8316 8.75 27.5001 8.75V11.25ZM13.7501 3.75C13.7505 4.0814 13.8823 4.39911 14.1166 4.63345C14.351 4.86779 14.6687 4.99961 15.0001 5H24.3751C24.478 5 24.5792 5.0254 24.67 5.07395C24.7607 5.12249 24.838 5.19268 24.8951 5.27828L26.2501 7.31078V6.875C26.2487 5.71508 25.7874 4.60305 24.9672 3.78287C24.147 2.96268 23.035 2.50132 21.8751 2.5H15.0001C14.6687 2.50039 14.351 2.63222 14.1166 2.86655C13.8823 3.10089 13.7505 3.4186 13.7501 3.75ZM13.7501 10.0148L16.8349 12.8623C17.7604 12.2097 18.8676 11.8643 20.0001 11.875C21.3098 11.875 22.5704 12.3281 23.5001 13.125H24.2087L25.6241 12.3162C25.8271 12.2005 26.0361 12.0955 26.2501 12.0015V9.56398L24.0406 6.25H15.0001C14.868 6.24999 14.7361 6.23954 14.6056 6.21875C14.0438 7.17558 13.7483 8.2654 13.7501 9.375V10.0148ZM34.0296 10.066L33.4685 11.1832C33.6076 11.254 36.8748 12.9699 36.8748 17.5002H38.1248C38.1251 12.1749 34.1968 10.1496 34.0296 10.066ZM28.6651 5.09266L29.6445 5.86938L32.3398 2.47094L31.3605 1.69414L28.6651 5.09266ZM30.6946 8.41078L31.1305 9.58266L36.1696 7.70766L35.7337 6.53617L30.6946 8.41078ZM25.3769 29.0068L26.1362 30C28.4118 28.2598 27.915 25.625 27.8927 25.514L26.667 25.7591C26.6709 25.7784 27.0401 27.7349 25.3769 29.0068ZM24.2362 16.5376L25.5195 18.1157L26.4893 17.327L25.206 15.7489L24.2362 16.5376ZM22.5072 19.0165L22.6017 17.1775L21.3533 17.1133L21.2588 18.9523L22.5072 19.0165Z" fill="white"/>
</svg>
