<svg width="40" height="40" viewBox="0 0 40 40" fill="none" xmlns="http://www.w3.org/2000/svg">
<g clip-path="url(#clip0)">
<path d="M18.0474 23.4869H17.0078L17.0852 23.3676C17.3034 23.0311 17.3345 22.665 17.1706 22.3631C17.1474 22.3205 17.1202 22.2813 17.0909 22.244C17.9576 21.268 18.5914 20.0768 18.9034 18.7603H19.6897C20.6589 18.7603 21.4475 17.9718 21.4475 17.0025V14.8354C21.4475 13.8661 20.6589 13.0776 19.6897 13.0776H19.1216V8.31871C19.1216 5.79325 17.0886 3.73865 14.5896 3.73865H11.5826C10.4373 3.73865 9.39051 4.17107 8.59176 4.88161H6.82357C4.85686 4.88161 3.25686 6.49778 3.25686 8.48433V13.0775H2.68874C1.71952 13.0775 0.930934 13.866 0.930934 14.8353V17.0024C0.930934 17.9717 1.71952 18.7602 2.68874 18.7602H3.47499C3.78702 20.0767 4.42084 21.268 5.28756 22.2439C5.25818 22.2811 5.23092 22.3204 5.20779 22.3629C5.04373 22.6647 5.07475 23.0308 5.29295 23.3674L5.37037 23.4868H4.331C1.94288 23.4869 0 25.4297 0 27.8178V36.2713C0 36.8295 0.454061 37.2834 1.01211 37.2834H14.6874C15.0111 37.2834 15.2734 37.0211 15.2734 36.6975C15.2734 36.3739 15.0111 36.1116 14.6874 36.1116H3.85694V31.3475C3.85694 31.0239 3.59467 30.7616 3.271 30.7616C2.94741 30.7616 2.68507 31.0239 2.68507 31.3475V36.1116H1.17187V27.8178C1.17187 26.0759 2.58905 24.6587 4.331 24.6587H6.13029L6.30466 24.9277C6.48076 25.1993 6.84372 25.2766 7.11505 25.1006C7.38661 24.9246 7.46403 24.5617 7.28794 24.2901L6.8349 23.5915C7.87348 24.2838 9.08137 24.7366 10.3814 24.8702C10.3622 24.8956 10.3427 24.9205 10.3249 24.9479L9.01965 26.961L8.85848 26.7123C8.68231 26.4408 8.3195 26.3634 8.04809 26.5395C7.77653 26.7156 7.69911 27.0784 7.8752 27.35L8.15551 27.7821C8.36317 28.1026 8.67809 28.2864 9.0195 28.2864H9.01965C9.36098 28.2864 9.67598 28.1027 9.88395 27.7822L10.6034 26.6726V32.5839C10.6034 32.9075 10.8657 33.1699 11.1893 33.1699C11.513 33.1699 11.7753 32.9075 11.7753 32.5839V26.6727L12.4946 27.7823C12.7025 28.1028 13.0174 28.2865 13.3589 28.2864H13.3591C13.7006 28.2864 14.0155 28.1025 14.2232 27.7821L16.2483 24.6587H18.0476C19.7895 24.6587 21.2067 26.0759 21.2067 27.8178V36.1116H19.6934V31.3475C19.6934 31.0239 19.4312 30.7616 19.1075 30.7616C18.7838 30.7616 18.5216 31.0239 18.5216 31.3475V36.1116H17.8906C17.5669 36.1116 17.3046 36.3739 17.3046 36.6975C17.3046 37.0211 17.5669 37.2834 17.8906 37.2834H21.3662C21.9244 37.2834 22.3783 36.8295 22.3783 36.2713V27.8178C22.3783 25.4297 20.4355 23.4869 18.0474 23.4869ZM19.1216 16.8903V14.2495H19.6897C20.0128 14.2495 20.2756 14.5123 20.2756 14.8354V17.0025C20.2756 17.3256 20.0128 17.5884 19.6897 17.5884H19.0913C19.1109 17.3583 19.1216 17.1255 19.1216 16.8903ZM2.68866 17.5884C2.36554 17.5884 2.10273 17.3256 2.10273 17.0025V14.8354C2.10273 14.5123 2.36554 14.2495 2.68866 14.2495H3.25678V16.8903C3.25678 17.1255 3.26749 17.3583 3.28717 17.5884H2.68866ZM11.5826 4.91052H14.5896C16.4424 4.91052 17.9498 6.43942 17.9498 8.31871V8.73191C17.6103 8.29035 17.1995 7.89933 16.719 7.56449C15.3627 6.61942 13.4505 6.11989 11.1893 6.11989C10.3643 6.11989 9.58637 6.18715 8.86442 6.31754C9.4759 5.46559 10.4664 4.91052 11.5826 4.91052ZM4.42865 8.48441C4.42873 7.14402 5.5031 6.05356 6.82357 6.05356H7.64567C7.52583 6.26543 7.42231 6.48778 7.33653 6.71887C6.712 6.94137 6.14904 7.22348 5.65951 7.56457C5.17904 7.89941 4.76811 8.29043 4.42865 8.73199V8.48441ZM13.3588 26.9611L12.0535 24.9478C12.0357 24.9204 12.0162 24.8956 11.997 24.8703C13.2969 24.7368 14.5047 24.284 15.5432 23.5918L13.3588 26.9611ZM11.1893 23.7397C7.46146 23.7397 4.42873 20.6671 4.42873 16.8903V12.4645C4.42873 10.73 5.06826 9.40487 6.32951 8.52605C7.48833 7.71863 9.16879 7.29184 11.1893 7.29184C13.2098 7.29184 14.8903 7.71863 16.049 8.52605C17.3103 9.40487 17.9498 10.7299 17.9498 12.4645V16.8903C17.9498 20.6671 14.9171 23.7397 11.1893 23.7397Z" fill="white"/>
<path d="M38.9228 16.428C39.308 15.6953 39.5265 14.8617 39.5265 13.9778V12.3032C39.5265 9.69489 37.6275 7.5231 35.1398 7.09404C35.1462 7.00076 35.1508 6.90685 35.1508 6.81193C35.1508 4.55373 33.3136 2.71655 31.0555 2.71655C28.7973 2.71655 26.96 4.55373 26.96 6.81193C26.96 6.90693 26.9646 7.00076 26.971 7.09411C24.4833 7.52325 22.5845 9.69504 22.5845 12.3033V13.9779C22.5845 14.8617 22.8029 15.6953 23.1882 16.4281C22.5561 16.6946 22.1111 17.3206 22.1111 18.0486V19.5166C22.1111 20.4859 22.8997 21.2744 23.869 21.2744H24.5266C24.785 22.4596 25.3882 23.5243 26.2296 24.37C24.107 25.6854 22.7938 27.9053 22.7938 30.5767V36.2721C22.7938 36.8302 23.2478 37.2842 23.8058 37.2842H38.3052C38.8633 37.2842 39.3173 36.8302 39.3173 36.2721V30.5767C39.3173 27.9054 38.0041 25.6854 35.8813 24.37C36.7228 23.5244 37.3261 22.4597 37.5845 21.2744H38.2423C39.2115 21.2744 40.0001 20.4859 40.0001 19.5166V18.0487C39.9999 17.3206 39.555 16.6946 38.9228 16.428ZM31.0555 3.8885C32.6675 3.8885 33.9789 5.19998 33.9789 6.81201C33.9789 6.88052 33.9765 6.94849 33.9717 7.01575H32.4354C31.958 7.01575 31.4955 7.08044 31.0552 7.19966C30.6153 7.08021 30.1529 7.01575 29.6756 7.01575H28.1391C28.1343 6.94841 28.1319 6.88052 28.1319 6.81201C28.1319 5.19998 29.4434 3.8885 31.0555 3.8885ZM23.8689 20.1025C23.5457 20.1025 23.2829 19.8396 23.2829 19.5166V18.0486C23.2829 17.7256 23.5457 17.4627 23.8689 17.4627H24.3855V19.9669C24.3855 20.0123 24.3881 20.0573 24.3891 20.1025H23.8689ZM24.3982 16.1799C23.9925 15.5427 23.7562 14.7877 23.7562 13.9779V12.3033H23.7563C23.7563 10.0339 25.6027 8.18762 27.8721 8.18762H29.121C28.1744 8.95137 27.4969 10.0344 27.2509 11.2712C25.6111 12.367 24.508 14.1492 24.3982 16.1799ZM36.4033 26.2597C37.5438 27.387 38.1454 28.87 38.1454 30.5767V36.1124H36.8793V31.8401C36.8793 31.5165 36.617 31.2542 36.2934 31.2542C35.9697 31.2542 35.7074 31.5165 35.7074 31.8401V36.1124H26.4035V31.8401C26.4035 31.5165 26.1412 31.2542 25.8175 31.2542C25.4939 31.2542 25.2316 31.5165 25.2316 31.8401V36.1124H23.9656V30.5767C23.9656 28.87 24.5671 27.3868 25.7077 26.2596C25.7197 27.9435 27.0928 29.3097 28.7795 29.3097C29.3931 29.3097 29.9775 29.1263 30.4695 28.8021V31.7015C30.4695 32.0251 30.7318 32.2875 31.0555 32.2875C31.3792 32.2875 31.6414 32.0251 31.6414 31.7015V28.8021C32.1334 29.1263 32.7177 29.3097 33.3313 29.3097C35.0179 29.3097 36.3912 27.9435 36.4033 26.2597ZM26.8789 26.2372C26.8789 25.8449 26.9996 25.481 27.2043 25.178C28.293 25.9183 29.6214 26.3554 31.0552 26.3554C32.4892 26.3554 33.8177 25.9183 34.9066 25.1779C35.1112 25.4808 35.232 25.8448 35.232 26.2372C35.232 27.2852 34.3794 28.1379 33.3313 28.1379C32.5784 28.1379 31.8956 27.6923 31.5917 27.0027C31.498 26.7903 31.2876 26.6531 31.0555 26.6531C30.8233 26.6531 30.613 26.7902 30.5193 27.0027C30.2153 27.6923 29.5324 28.1379 28.7795 28.1379C27.7315 28.1379 26.8789 27.2852 26.8789 26.2372ZM36.7054 13.1164C36.5278 12.8458 36.1644 12.7706 35.894 12.9481C35.6234 13.1257 35.5481 13.4889 35.7258 13.7595C36.2673 14.5842 36.5535 15.5364 36.5535 16.5132V19.967C36.5535 22.8434 34.087 25.1836 31.0552 25.1836C28.0237 25.1836 25.5574 22.8434 25.5574 19.967V16.5132C25.5574 13.6368 28.0237 11.2968 31.0552 11.2968C32.1002 11.2967 33.1167 11.5759 33.9948 12.1042C34.272 12.2709 34.632 12.1814 34.7989 11.9041C34.9657 11.6268 34.8762 11.2668 34.5988 11.1C33.5384 10.4621 32.313 10.1249 31.0552 10.1249C30.2348 10.1249 29.4492 10.2689 28.7228 10.5296C29.3866 9.1459 30.801 8.18762 32.4354 8.18762H34.2388C36.5083 8.18762 38.3546 10.0339 38.3546 12.3033V13.9779C38.3546 14.786 38.1193 15.5395 37.7152 16.1759C37.6557 15.089 37.3102 14.0376 36.7054 13.1164ZM38.828 19.5166C38.828 19.8396 38.5652 20.1025 38.2421 20.1025H37.7218C37.7228 20.0573 37.7254 20.0123 37.7254 19.9669V17.4627H38.2421C38.5652 17.4627 38.828 17.7256 38.828 18.0486V19.5166Z" fill="white"/>
<path d="M31.5244 19.1265V18.885C31.5244 18.5613 31.262 18.299 30.9384 18.299C30.6148 18.299 30.3525 18.5613 30.3525 18.8849V19.3878C30.3525 19.8883 30.758 20.2955 31.2566 20.2955H31.4664C31.7901 20.2955 32.0523 20.0332 32.0523 19.7096C32.0523 19.4055 31.8208 19.1556 31.5244 19.1265Z" fill="white"/>
<path d="M28.4179 17.4935C28.0942 17.4935 27.8319 17.7559 27.8319 18.0795V18.8303C27.8319 19.1539 28.0942 19.4163 28.4179 19.4163C28.7415 19.4163 29.0038 19.1539 29.0038 18.8303V18.0795C29.0038 17.7559 28.7415 17.4935 28.4179 17.4935Z" fill="white"/>
<path d="M33.6929 17.4935C33.3692 17.4935 33.107 17.7559 33.107 18.0795V18.8303C33.107 19.1539 33.3692 19.4163 33.6929 19.4163C34.0166 19.4163 34.2788 19.1539 34.2788 18.8303V18.0795C34.2788 17.7559 34.0165 17.4935 33.6929 17.4935Z" fill="white"/>
<path d="M32.8059 21.4476C32.5056 21.3273 32.1644 21.4732 32.0442 21.7737C31.8926 22.1523 31.5325 22.397 31.127 22.397C30.7213 22.397 30.3613 22.1525 30.2098 21.7739C30.0896 21.4734 29.7486 21.3274 29.4482 21.4476C29.1477 21.5679 29.0017 21.9089 29.1219 22.2093C29.4524 23.0353 30.2394 23.5689 31.127 23.5689C32.0142 23.5689 32.8013 23.0354 33.132 22.2096C33.2523 21.909 33.1064 21.5679 32.8059 21.4476Z" fill="white"/>
<path d="M32.3714 12.4551H29.7394C29.4157 12.4551 29.1535 12.7174 29.1535 13.041C29.1535 13.3646 29.4157 13.6269 29.7394 13.6269H32.3714C32.695 13.6269 32.9573 13.3646 32.9573 13.041C32.9573 12.7174 32.695 12.4551 32.3714 12.4551Z" fill="white"/>
<path d="M33.6877 14.4729H28.4233C28.0996 14.4729 27.8373 14.7352 27.8373 15.0588C27.8373 15.3825 28.0997 15.6448 28.4233 15.6448H33.6877C34.0114 15.6448 34.2736 15.3824 34.2736 15.0588C34.2736 14.7352 34.0114 14.4729 33.6877 14.4729Z" fill="white"/>
<path d="M28.7114 20.4114C28.4698 20.1962 28.0994 20.2178 27.8842 20.4596L27.0642 21.3808C26.849 21.6225 26.8706 21.9928 27.1123 22.208C27.2239 22.3074 27.3631 22.3563 27.5016 22.3563C27.663 22.3563 27.8237 22.2899 27.9395 22.1599L28.7595 21.2386C28.9747 20.997 28.9531 20.6266 28.7114 20.4114Z" fill="white"/>
<path d="M35.0464 21.3811L34.2265 20.4599C34.0112 20.2182 33.6409 20.1965 33.3992 20.4118C33.1575 20.6269 33.1359 20.9973 33.3511 21.239L34.1711 22.1602C34.2869 22.2903 34.4476 22.3566 34.609 22.3566C34.7475 22.3566 34.8867 22.3077 34.9983 22.2083C35.24 21.9932 35.2615 21.6228 35.0464 21.3811Z" fill="white"/>
<path d="M11.6767 15.7775H11.2875V14.6522C11.2875 14.3286 11.0252 14.0662 10.7015 14.0662C10.3779 14.0662 10.1156 14.3286 10.1156 14.6522V15.9466C10.1156 16.4995 10.5633 16.9493 11.1136 16.9493H11.6767C12.0004 16.9493 12.2626 16.687 12.2626 16.3634C12.2626 16.0398 12.0004 15.7775 11.6767 15.7775Z" fill="white"/>
<path d="M7.77291 13.2752C7.44924 13.2752 7.18698 13.5376 7.18698 13.8611V14.8337C7.18698 15.1573 7.44924 15.4197 7.77291 15.4197C8.09658 15.4197 8.35885 15.1573 8.35885 14.8337V13.8611C8.35885 13.5376 8.09658 13.2752 7.77291 13.2752Z" fill="white"/>
<path d="M14.6055 13.2752C14.2818 13.2752 14.0195 13.5376 14.0195 13.8611V14.8337C14.0195 15.1573 14.2818 15.4197 14.6055 15.4197C14.9291 15.4197 15.1914 15.1573 15.1914 14.8337V13.8611C15.1914 13.5376 14.9291 13.2752 14.6055 13.2752Z" fill="white"/>
<path d="M13.4275 8.40668H8.95068C8.62701 8.40668 8.36475 8.66902 8.36475 8.99261C8.36475 9.3162 8.62709 9.57855 8.95068 9.57855H13.4275C13.7512 9.57855 14.0135 9.3162 14.0135 8.99261C14.0135 8.66902 13.7512 8.40668 13.4275 8.40668Z" fill="white"/>
<path d="M14.6659 10.5019H7.7126C7.38893 10.5019 7.12666 10.7642 7.12666 11.0878C7.12666 11.4114 7.38893 11.6738 7.7126 11.6738H14.6659C14.9896 11.6738 15.2519 11.4114 15.2519 11.0878C15.2519 10.7642 14.9896 10.5019 14.6659 10.5019Z" fill="white"/>
<path d="M13.2862 19.9688C13.0987 19.705 12.7328 19.6431 12.4691 19.8306C12.12 20.0786 11.7094 20.2098 11.282 20.2098C10.7955 20.2098 10.3225 20.0349 9.95013 19.7172C9.70388 19.5072 9.33403 19.5367 9.12411 19.7827C8.91411 20.0288 8.94341 20.3987 9.18966 20.6088C9.77395 21.1071 10.517 21.3817 11.282 21.3817C11.9542 21.3817 12.5993 21.1756 13.1479 20.7859C13.4117 20.5985 13.4736 20.2327 13.2862 19.9688Z" fill="white"/>
<path d="M8.95035 17.7883C8.79894 17.5023 8.44457 17.3931 8.15832 17.5446C6.74083 18.2952 6.23458 19.6921 6.21372 19.7512C6.10598 20.0564 6.26606 20.3911 6.57122 20.4988C6.63583 20.5216 6.70161 20.5323 6.76629 20.5323C7.00778 20.5323 7.23387 20.3819 7.31879 20.1412C7.32239 20.1311 7.70527 19.1105 8.70676 18.5803C8.99269 18.4289 9.10183 18.0743 8.95035 17.7883Z" fill="white"/>
<path d="M16.1646 19.7512C16.1438 19.692 15.6374 18.2952 14.22 17.5445C13.934 17.3932 13.5794 17.5023 13.428 17.7882C13.2765 18.0742 13.3856 18.4288 13.6716 18.5802C14.6689 19.1083 15.0525 20.1223 15.0605 20.1438C15.1461 20.383 15.3714 20.5323 15.6121 20.5323C15.6768 20.5323 15.7427 20.5215 15.8071 20.4987C16.1123 20.391 16.2723 20.0563 16.1646 19.7512Z" fill="white"/>
</g>
<defs>
<clipPath id="clip0">
<rect width="40" height="40" fill="white"/>
</clipPath>
</defs>
</svg>
