<svg width="40" height="40" viewBox="0 0 40 40" fill="none" xmlns="http://www.w3.org/2000/svg">
<path d="M23.5228 19.236C23.8782 18.6204 24.0661 17.9212 24.0661 17.2141C24.0661 15.7696 23.2898 14.4244 22.0402 13.7034C21.7223 13.52 21.5325 13.1913 21.5325 12.8242C21.5325 12.4571 21.7223 12.1284 22.0405 11.9448C23.2899 11.2231 24.0661 9.87766 24.0661 8.43359C24.0661 7.72648 23.8782 7.02734 23.5227 6.41156C22.801 5.16211 21.4555 4.38594 20.0114 4.38594C19.3044 4.38594 18.6052 4.57383 17.989 4.92961C17.8304 5.02141 17.6605 5.06797 17.4841 5.06797C16.9949 5.06797 16.4669 4.67875 16.4669 4.05C16.4669 2.96758 16.0454 1.95047 15.2807 1.1868C14.5164 0.421484 13.4993 0 12.4169 0C10.1833 0 8.36613 1.8168 8.36613 4.05C8.36613 4.67875 7.83817 5.06797 7.34895 5.06797C7.17254 5.06797 7.0027 5.02141 6.84363 4.92938C6.44145 4.69703 6.00793 4.53695 5.5552 4.45344C5.23668 4.39477 4.93137 4.60531 4.87278 4.92352C4.81418 5.2418 5.02457 5.54727 5.34285 5.60594C5.66371 5.66508 5.97145 5.77883 6.25707 5.94383C6.5916 6.1375 6.96926 6.23992 7.34902 6.23992C8.55606 6.23992 9.53809 5.25758 9.53809 4.05008C9.53809 2.46312 10.8296 1.17195 12.417 1.17195C13.1861 1.17195 13.9087 1.47133 14.4522 2.01547C14.9957 2.55836 15.2951 3.28094 15.2951 4.05008C15.2951 5.25758 16.2772 6.23992 17.4842 6.23992C17.864 6.23992 18.2416 6.1375 18.5756 5.94422C19.0134 5.69148 19.5099 5.55789 20.0115 5.55789C21.0384 5.55789 21.995 6.10961 22.508 6.99773C22.7607 7.43547 22.8943 7.93195 22.8943 8.43367C22.8943 9.46055 22.3426 10.4171 21.4547 10.93C20.7697 11.3252 20.3607 12.0333 20.3607 12.8243C20.3607 13.6153 20.7697 14.3234 21.4547 14.7185C22.3426 15.2309 22.8943 16.1871 22.8943 17.2141C22.8943 17.7158 22.7607 18.2123 22.5081 18.65C21.995 19.5382 21.0384 20.0899 20.0115 20.0899C19.5099 20.0899 19.0134 19.9563 18.5761 19.704C18.2416 19.5103 17.8639 19.4079 17.4841 19.4079C16.2771 19.4079 15.295 20.3902 15.295 21.5977C15.295 23.1852 14.0039 24.4766 12.4169 24.4766C11.6479 24.4766 10.925 24.1772 10.3815 23.6337C9.83762 23.089 9.53801 22.3659 9.53801 21.5977C9.53801 20.3902 8.55598 19.4079 7.34895 19.4079C6.96918 19.4079 6.59152 19.5103 6.25754 19.7036C5.81973 19.9563 5.32324 20.0899 4.8216 20.0899C3.79457 20.0899 2.83832 19.5383 2.3259 18.6501C2.07317 18.2123 1.93957 17.7158 1.93957 17.2141C1.93957 16.1871 2.49121 15.2309 3.37918 14.7186C4.06418 14.3234 4.47309 13.6153 4.47309 12.8243C4.47309 12.0333 4.06418 11.3252 3.37942 10.9302C2.49121 10.4171 1.93949 9.46055 1.93949 8.43367C1.93949 7.93203 2.07309 7.43547 2.32574 6.99781C2.5877 6.54445 2.96598 6.17188 3.41981 5.92031C3.70285 5.76344 3.80504 5.4068 3.64817 5.12375C3.49129 4.84078 3.13481 4.73852 2.8516 4.89539C2.21192 5.25008 1.67926 5.7743 1.31106 6.41172C0.955587 7.02734 0.767696 7.72656 0.767696 8.43359C0.767696 9.87766 1.54387 11.2231 2.79363 11.945C3.11145 12.1284 3.30129 12.457 3.30129 12.8241C3.30129 13.1912 3.11152 13.5199 2.79363 13.7034C1.54402 14.4243 0.767696 15.7695 0.767696 17.214C0.767696 17.9211 0.955587 18.6202 1.31098 19.2357C2.03199 20.4853 3.37715 21.2616 4.82168 21.2616C5.52871 21.2616 6.22793 21.0737 6.8441 20.718C7.0027 20.6262 7.17262 20.5796 7.34895 20.5796C7.83817 20.5796 8.36613 20.9688 8.36613 21.5976C8.36613 22.6785 8.78738 23.6957 9.55262 24.4619C10.3177 25.227 11.3349 25.6484 12.4169 25.6484C14.65 25.6484 16.4669 23.8312 16.4669 21.5976C16.4669 20.9688 16.9949 20.5796 17.4841 20.5796C17.6605 20.5796 17.8304 20.6262 17.9896 20.7183C18.6052 21.0737 19.3044 21.2616 20.0114 21.2616C21.4555 21.2617 22.801 20.4855 23.5228 19.236Z" fill="white"/>
<path d="M10.1862 7.64771C8.36865 7.64771 6.8899 9.12637 6.8899 10.944C6.8899 12.7615 8.36865 14.2403 10.1862 14.2403C12.0038 14.2403 13.4825 12.7615 13.4825 10.944C13.4825 9.12637 12.0038 7.64771 10.1862 7.64771ZM10.1862 13.0684C9.01482 13.0684 8.06177 12.1154 8.06177 10.944C8.06177 9.77255 9.01482 8.81958 10.1862 8.81958C11.3576 8.81958 12.3106 9.77255 12.3106 10.944C12.3106 12.1154 11.3576 13.0684 10.1862 13.0684Z" fill="white"/>
<path d="M18.9223 13.5487C18.9223 12.0708 17.7199 10.8684 16.242 10.8684C14.7641 10.8684 13.5617 12.0708 13.5617 13.5487C13.5617 15.0266 14.7641 16.229 16.242 16.229C17.7199 16.229 18.9223 15.0267 18.9223 13.5487ZM14.7335 13.5487C14.7335 12.717 15.4102 12.0403 16.2419 12.0403C17.0736 12.0403 17.7503 12.717 17.7503 13.5487C17.7503 14.3804 17.0736 15.0572 16.2419 15.0572C15.4102 15.0572 14.7335 14.3805 14.7335 13.5487Z" fill="white"/>
<path d="M11.9473 18.2423C10.888 18.2423 10.0262 17.3805 10.0262 16.3213C10.0262 15.9977 9.76391 15.7354 9.44031 15.7354C9.11672 15.7354 8.85437 15.9977 8.85437 16.3213C8.85437 18.0268 10.2418 19.4142 11.9473 19.4142C12.2709 19.4142 12.5332 19.1518 12.5332 18.8282C12.5332 18.5046 12.2709 18.2423 11.9473 18.2423Z" fill="white"/>
<path d="M36.6047 29.3747C36.9527 28.944 37.2311 28.4664 37.4344 27.9484C37.5525 27.6471 37.4041 27.3071 37.1029 27.1889C36.8013 27.0706 36.4616 27.2192 36.3434 27.5204C36.1284 28.0685 35.8063 28.5597 35.3859 28.9805C35.3852 28.9812 35.3844 28.9817 35.3838 28.9824C35.3827 28.9835 35.3819 28.9846 35.3809 28.9856L27.9957 36.3701C27.1853 37.1804 26.1081 37.6266 24.9623 37.6266C23.8165 37.6266 22.7393 37.1803 21.929 36.3701C20.2572 34.6984 20.2568 31.978 21.9274 30.305C21.9279 30.3046 21.9285 30.3041 21.929 30.3036C21.9298 30.3028 21.9304 30.302 21.9312 30.3012L29.3174 22.9158C30.1275 22.1053 31.2046 21.659 32.3503 21.659C33.4961 21.659 34.5734 22.1053 35.384 22.9159C36.0818 23.6137 36.5072 24.4998 36.6143 25.4786C36.6495 25.8003 36.9384 26.0327 37.2605 25.9974C37.5822 25.9621 37.8145 25.6728 37.7792 25.3512C37.6448 24.1222 37.0884 22.9631 36.2127 22.0874C35.1808 21.0555 33.8091 20.4873 32.3503 20.4873C31.0887 20.4873 29.8928 20.9131 28.9254 21.6954L26.6877 19.4578C26.4588 19.2289 26.0879 19.2289 25.8591 19.4578C25.6302 19.6866 25.6302 20.0576 25.8591 20.2863L28.0744 22.5017L27.056 23.5199L24.8408 21.3047C24.6119 21.0759 24.2409 21.0759 24.0121 21.3047C23.7833 21.5335 23.7833 21.9046 24.0121 22.1333L26.2273 24.3485L25.2089 25.3667L22.9938 23.1517C22.7649 22.9228 22.394 22.9228 22.1652 23.1517C21.9363 23.3805 21.9363 23.7515 22.1652 23.9803L24.3802 26.1953L23.3619 27.2136L21.1469 24.9986C20.918 24.7698 20.547 24.7698 20.3182 24.9986C20.0894 25.2274 20.0894 25.5985 20.3182 25.8272L22.5332 28.0422L21.5148 29.0605L19.2998 26.8456C19.071 26.6167 18.7 26.6167 18.4713 26.8456C18.2424 27.0744 18.2424 27.4454 18.4713 27.6742L20.7088 29.9117C18.9813 32.0548 19.1115 35.2095 21.1006 37.1985C22.1323 38.2302 23.5038 38.7983 24.9626 38.7983C26.2241 38.7983 27.42 38.3727 28.3877 37.5906L30.6253 39.8283C30.7398 39.9428 30.8897 39.9999 31.0397 39.9999C31.1896 39.9999 31.3396 39.9428 31.4541 39.8283C31.6829 39.5995 31.6829 39.2285 31.4541 38.9997L29.2388 36.7845L30.2572 35.7662L32.4723 37.9813C32.5868 38.0958 32.7367 38.153 32.8867 38.153C33.0366 38.153 33.1866 38.0958 33.3011 37.9813C33.5299 37.7525 33.5299 37.3815 33.3011 37.1528L31.0859 34.9376L32.1043 33.9193L34.3194 36.1344C34.4338 36.2488 34.5838 36.306 34.7338 36.306C34.8837 36.306 35.0337 36.2488 35.1481 36.1344C35.377 35.9056 35.377 35.5346 35.1481 35.3058L32.9331 33.0907L33.9515 32.0724L36.1664 34.2874C36.2809 34.4019 36.4308 34.4591 36.5808 34.4591C36.7307 34.4591 36.8807 34.4019 36.9952 34.2874C37.224 34.0586 37.224 33.6876 36.9952 33.4588L34.7802 31.2438L35.7986 30.2256L38.0134 32.4404C38.1279 32.5548 38.2779 32.6121 38.4278 32.6121C38.5777 32.6121 38.7277 32.5549 38.8422 32.4404C39.071 32.2116 39.071 31.8406 38.8422 31.6118L36.6047 29.3747Z" fill="white"/>
<path d="M33.2267 25.6276C33.8831 25.6616 34.6996 25.7037 35.4589 24.9444C35.6878 24.7156 35.6878 24.3447 35.459 24.1158C35.2301 23.887 34.8591 23.887 34.6304 24.1158C34.257 24.4892 33.9128 24.4897 33.2873 24.4574C32.631 24.4235 31.8144 24.3813 31.055 25.1406C30.2957 25.8999 30.3379 26.7166 30.3718 27.3729C30.4041 27.9987 30.4036 28.3427 30.0302 28.7161C29.6568 29.0895 29.3127 29.09 28.6871 29.0576C28.0309 29.0237 27.2141 28.9816 26.4548 29.7408C25.6955 30.5002 25.7376 31.3169 25.7715 31.9732C25.8038 32.599 25.8032 32.9431 25.4298 33.3165C25.0563 33.69 24.7127 33.6906 24.0865 33.6583C23.4302 33.6245 22.6135 33.5823 21.8541 34.3417C21.6253 34.5705 21.6253 34.9415 21.8541 35.1703C21.9686 35.2847 22.1186 35.3419 22.2685 35.3419C22.4184 35.3419 22.5684 35.2847 22.6829 35.1703C23.0563 34.7969 23.4001 34.7963 24.0262 34.8286C24.6821 34.8622 25.4991 34.9046 26.2585 34.1451C27.0179 33.3858 26.9758 32.569 26.9419 31.9128C26.9096 31.2869 26.9102 30.9429 27.2835 30.5694C27.6569 30.1961 28.0009 30.1956 28.6267 30.2279C29.283 30.2618 30.0997 30.304 30.8588 29.5447C31.6183 28.7854 31.5761 27.9686 31.5422 27.3124C31.5098 26.6865 31.5104 26.3426 31.8837 25.9692C32.257 25.5958 32.601 25.5952 33.2267 25.6276Z" fill="white"/>
<path d="M11.4873 29.5212C9.85834 29.5212 8.53311 30.8465 8.53311 32.4755C8.53311 34.1044 9.85834 35.4297 11.4873 35.4297C13.1163 35.4297 14.4416 34.1044 14.4416 32.4755C14.4416 30.8465 13.1163 29.5212 11.4873 29.5212ZM11.4873 34.2579C10.5045 34.2579 9.70498 33.4583 9.70498 32.4755C9.70498 31.4927 10.5045 30.6932 11.4873 30.6932C12.4701 30.6932 13.2697 31.4927 13.2697 32.4755C13.2697 33.4583 12.4701 34.2579 11.4873 34.2579Z" fill="white"/>
<path d="M6.30013 25.1566C5.12232 25.1566 4.16419 26.1148 4.16419 27.2926C4.16419 28.4704 5.1224 29.4285 6.30013 29.4285C7.47786 29.4285 8.43607 28.4703 8.43607 27.2926C8.43607 26.1148 7.47786 25.1566 6.30013 25.1566ZM6.30013 28.2567C5.76849 28.2567 5.33607 27.8242 5.33607 27.2926C5.33607 26.7611 5.76857 26.3286 6.30013 26.3286C6.83169 26.3286 7.26419 26.7611 7.26419 27.2926C7.26419 27.8242 6.83169 28.2567 6.30013 28.2567Z" fill="white"/>
<path d="M38.6461 9.82175H37.0384C36.9364 9.0823 36.6449 8.40269 36.2137 7.83401L37.3515 6.69628C37.5803 6.46745 37.5803 6.09651 37.3515 5.86769C37.1227 5.63886 36.7517 5.63878 36.5228 5.86769L35.385 7.00534C34.8163 6.57409 34.1368 6.28261 33.3974 6.18058V4.573C33.3974 4.2494 33.1351 3.98706 32.8114 3.98706C32.4877 3.98706 32.2255 4.2494 32.2255 4.573V6.18065C31.486 6.28269 30.8064 6.57417 30.2378 7.00542L29.1001 5.86769C28.8712 5.63886 28.5002 5.63886 28.2714 5.86769C28.0426 6.09651 28.0426 6.46753 28.2714 6.69628L29.4092 7.83401C28.978 8.40269 28.6865 9.0823 28.5845 9.82175H26.9769C26.6532 9.82175 26.3909 10.0841 26.3909 10.4077C26.3909 10.7313 26.6532 10.9936 26.9769 10.9936H28.5845C28.6865 11.7331 28.978 12.4127 29.4092 12.9814L28.2714 14.1191C28.0426 14.3479 28.0426 14.7189 28.2714 14.9477C28.3859 15.0621 28.5358 15.1193 28.6858 15.1193C28.8357 15.1193 28.9857 15.0621 29.1002 14.9477L30.2379 13.81C30.8066 14.2412 31.4861 14.5327 32.2256 14.6347V16.2424C32.2256 16.566 32.4878 16.8283 32.8115 16.8283C33.1352 16.8283 33.3974 16.566 33.3974 16.2424V14.6347C34.1369 14.5327 34.8165 14.2412 35.3851 13.81L36.5228 14.9477C36.6373 15.0621 36.7873 15.1193 36.9372 15.1193C37.0871 15.1193 37.2371 15.0621 37.3516 14.9477C37.5804 14.7189 37.5804 14.3478 37.3516 14.1191L36.2138 12.9814C36.645 12.4127 36.9365 11.7331 37.0385 10.9936H38.6462C38.9699 10.9936 39.2321 10.7313 39.2321 10.4077C39.2321 10.0841 38.9697 9.82175 38.6461 9.82175ZM32.8113 13.5041C31.104 13.5041 29.7149 12.115 29.7149 10.4077C29.7149 8.70034 31.1039 7.31128 32.8113 7.31128C34.5188 7.31128 35.9077 8.70034 35.9077 10.4077C35.9077 12.115 34.5188 13.5041 32.8113 13.5041Z" fill="white"/>
</svg>
