<svg width="40" height="40" viewBox="0 0 40 40" fill="none" xmlns="http://www.w3.org/2000/svg">
<g clip-path="url(#clip0)">
<path d="M24.3982 -0.078125C19.2553 -0.078125 15.0717 4.06342 15.0717 9.15377V16.3654C15.0717 18.7329 15.9774 20.8948 17.4633 22.5306C16.8395 23.8074 16.4816 25.203 16.4227 26.63C13.3367 27.7811 11.2917 30.6843 11.2917 33.9817C11.2917 36.0957 12.1725 38.1532 13.7084 39.6269C13.9068 39.8173 14.1674 39.922 14.443 39.922H30.0952C30.6787 39.922 31.1535 39.4492 31.1535 38.8685V22.7292C31.6958 22.1662 32.171 21.5314 32.5619 20.8332C32.72 20.5506 32.619 20.1935 32.3367 20.0357C32.0544 19.8777 31.6974 19.9784 31.5393 20.2607C31.3556 20.5887 31.1505 20.9003 30.9265 21.1951C30.607 20.1868 29.9682 19.3174 29.1284 18.7024C29.9746 17.88 30.6152 16.8402 30.9625 15.6717H31.6104C31.9528 15.6717 32.2745 15.5817 32.5528 15.4251V16.3654C32.5528 16.8674 32.5058 17.3703 32.413 17.8595C32.3529 18.1775 32.5619 18.4842 32.8796 18.5443C33.1976 18.6048 33.5043 18.3957 33.5644 18.0777C33.6709 17.5168 33.7247 16.9406 33.7247 16.3654V9.15377C33.725 4.06342 29.541 -0.078125 24.3982 -0.078125V-0.078125ZM16.2435 16.3654V15.4251C16.5222 15.5817 16.8435 15.6717 17.1862 15.6717H17.8338C18.2431 17.0484 19.06 18.2459 20.14 19.1199C19.7094 19.4733 19.2889 19.8844 18.897 20.3437C18.5974 20.6952 18.3233 21.0645 18.0749 21.4484C16.9308 20.0608 16.2435 18.2911 16.2435 16.3654ZM17.5915 14.4998H17.1862C16.7745 14.4998 16.4395 14.1715 16.4395 13.7677V12.3719C16.4395 11.9681 16.7742 11.6397 17.1862 11.6397H17.5408V13.6521C17.5408 13.9389 17.5585 14.2218 17.5915 14.4998ZM29.9728 22.4128C29.5575 22.1396 29.0597 21.98 28.5251 21.98C27.0758 21.98 25.8963 23.1492 25.8963 24.5865V30.9711H20.4995C19.8062 30.9711 19.2196 31.4341 19.0399 32.064C18.0612 32.2419 17.3175 33.0903 17.3175 34.1068C17.3175 35.2521 18.2614 36.1842 19.422 36.1842H24.5578C24.8813 36.1842 25.1437 35.9217 25.1437 35.5982C25.1437 35.2744 24.8813 35.0123 24.5578 35.0123H22.1661V32.143H26.4822C26.806 32.143 27.0681 31.8809 27.0681 31.5571V24.5865C27.0681 23.7955 27.7218 23.1519 28.5251 23.1519C29.3283 23.1519 29.9817 23.7955 29.9817 24.5865V33.5776C29.9817 34.3687 29.3283 35.0123 28.5251 35.0123H27.3703C27.0465 35.0123 26.7843 35.2744 26.7843 35.5982C26.7843 35.9217 27.0465 36.1842 27.3703 36.1842H28.5251C29.0634 36.1842 29.5645 36.0224 29.9817 35.7459V38.7501H14.4873C13.2006 37.4986 12.4636 35.7633 12.4636 33.9817C12.4636 31.0575 14.3572 28.4971 17.1755 27.6099C17.4197 27.5333 17.5857 27.3069 17.5857 27.0511C17.5857 24.8819 18.3682 22.7698 19.7888 21.1042C20.2163 20.6028 20.69 20.1609 21.163 19.8069C22.1273 20.3345 23.2287 20.6345 24.3982 20.6345C25.7943 20.6345 27.0935 20.2063 28.1781 19.4739C29.191 20.0949 29.8883 21.1719 29.9728 22.4128ZM20.1599 32.5217C20.1565 32.501 20.155 32.4839 20.155 32.4714C20.155 32.2904 20.3094 32.143 20.4995 32.143H20.9942V35.0123H19.422C18.9077 35.0123 18.4893 34.6061 18.4893 34.1068C18.4893 33.6076 18.9077 33.2014 19.422 33.2014H19.5816C19.7534 33.2014 19.9166 33.126 20.028 32.9954C20.1391 32.8644 20.1873 32.6914 20.1599 32.5217ZM32.3569 13.7677C32.3569 14.1715 32.0221 14.5002 31.6104 14.5002H31.2048C31.2381 14.2218 31.2555 13.9392 31.2555 13.6521V11.6397H31.6104C32.0221 11.6397 32.3569 11.9681 32.3569 12.3719V13.7677ZM32.5531 10.7144C32.2745 10.5579 31.9528 10.4679 31.6104 10.4679H31.2555V9.96004C31.2555 9.69332 31.1438 9.43544 30.9491 9.25203C30.7547 9.06954 30.4934 8.97402 30.2282 8.98775C30.1397 8.99202 30.0509 8.99446 29.9643 8.99446C28.5199 8.99446 27.1454 8.44179 26.094 7.43867C25.9112 7.26381 25.6707 7.16768 25.4171 7.16768C25.1638 7.16768 24.9237 7.26381 24.7409 7.43837C24.3289 7.83113 23.8638 8.15798 23.359 8.40944C23.0694 8.55379 22.9513 8.90535 23.0957 9.19527C23.2397 9.48458 23.5913 9.60268 23.8812 9.45833C24.4378 9.18123 24.9536 8.82875 25.4171 8.40944C26.6696 9.54378 28.277 10.1663 29.964 10.1663C30.0036 10.1663 30.0436 10.166 30.0836 10.1651V13.6521C30.0836 16.8561 27.5332 19.4629 24.3982 19.4629C21.2634 19.4629 18.7127 16.8561 18.7127 13.6521V10.1663H20.9491C21.2725 10.1663 21.535 9.90389 21.535 9.5804C21.535 9.25692 21.2725 8.99446 20.9491 8.99446H18.5189C17.9797 8.99446 17.5408 9.43117 17.5408 9.96828V10.4679H17.1862C16.8435 10.4679 16.5222 10.5579 16.2435 10.7144V9.15407C16.2435 4.70948 19.9017 1.09375 24.3982 1.09375C28.8946 1.09375 32.5531 4.70948 32.5531 9.15377V10.7144Z" fill="white"/>
<path d="M14.3444 24.5993C14.3444 23.9923 14.1082 23.4216 13.6797 22.9932C13.2506 22.5641 12.6802 22.3279 12.0736 22.3279C11.4669 22.3279 10.8962 22.5641 10.4671 22.9932L10.3362 23.1244L10.205 22.9932C9.77589 22.5641 9.20551 22.3279 8.59882 22.3279C7.99182 22.3279 7.42145 22.5641 6.99237 22.9932C6.5639 23.4219 6.328 23.9923 6.328 24.5996C6.328 25.2069 6.5639 25.7773 6.99237 26.2057L9.70508 28.9188C9.87385 29.0872 10.0978 29.18 10.3359 29.18C10.5742 29.18 10.7982 29.0872 10.967 28.9185L13.6797 26.2061C14.1082 25.7773 14.3444 25.2066 14.3444 24.5993ZM12.8511 25.3772L10.3359 27.8921L7.82123 25.3772C7.61402 25.17 7.49988 24.8938 7.49988 24.5993C7.49988 24.3051 7.61371 24.0289 7.82123 23.8217C8.02875 23.6142 8.30494 23.4998 8.59882 23.4998C8.8924 23.4998 9.16858 23.6142 9.37641 23.822L9.92176 24.3671C10.1503 24.5959 10.5214 24.5959 10.7503 24.3671L11.2957 23.8217C11.5035 23.6142 11.7797 23.4998 12.0736 23.4998C12.3671 23.4998 12.6433 23.6139 12.8511 23.8217C13.0584 24.0289 13.1725 24.3051 13.1725 24.5993C13.1725 24.8938 13.0584 25.17 12.8511 25.3772Z" fill="white"/>
<path d="M20.8925 11.2434C20.5691 11.2434 20.3066 11.5059 20.3066 11.8293V12.6216C20.3066 12.9451 20.5691 13.2075 20.8925 13.2075C21.2163 13.2075 21.4785 12.9451 21.4785 12.6216V11.8293C21.4785 11.5059 21.2163 11.2434 20.8925 11.2434Z" fill="white"/>
<path d="M27.9038 13.2075C28.2273 13.2075 28.4898 12.9451 28.4898 12.6216V11.8293C28.4898 11.5059 28.2273 11.2434 27.9038 11.2434C27.5804 11.2434 27.3179 11.5059 27.3179 11.8293V12.6216C27.3179 12.9451 27.5804 13.2075 27.9038 13.2075Z" fill="white"/>
<path d="M24.2547 14.7629H24.9322C25.256 14.7629 25.5181 14.5004 25.5181 14.177C25.5181 13.8532 25.256 13.591 24.9322 13.591H24.45V12.2003C24.45 11.8765 24.1876 11.6144 23.8641 11.6144C23.5406 11.6144 23.2781 11.8765 23.2781 12.2003V13.7863C23.2781 14.3247 23.7164 14.7629 24.2547 14.7629Z" fill="white"/>
<path d="M22.0106 15.8984C21.7832 16.1285 21.785 16.4993 22.0151 16.7269C22.6722 17.3769 23.5352 17.7017 24.3983 17.7017C25.2613 17.7017 26.1243 17.3769 26.7814 16.7269C27.0115 16.4993 27.0136 16.1282 26.786 15.8981C26.5586 15.6683 26.1875 15.6661 25.9574 15.8938C25.0977 16.744 23.6988 16.744 22.8391 15.8935C22.6093 15.6661 22.2382 15.6683 22.0106 15.8984Z" fill="white"/>
</g>
<defs>
<clipPath id="clip0">
<rect width="40" height="40" fill="white"/>
</clipPath>
</defs>
</svg>
