<svg width="28" height="28" viewBox="0 0 28 28" fill="none" xmlns="http://www.w3.org/2000/svg">
<path d="M13.9997 0.666641C21.3512 0.666641 27.333 6.64776 27.333 14C27.333 17.4596 26.0153 20.7122 23.6624 23.1764L26.6468 24.8346C27.1781 25.1295 27.4424 25.7461 27.29 26.3346C27.1377 26.9225 26.6077 27.3333 25.9997 27.3333H13.9997C6.64811 27.3333 0.666336 21.3522 0.666336 14C0.666336 6.64776 6.64811 0.666641 13.9997 0.666641Z" fill="white"/>
<path d="M13.9998 20.6667C14.7362 20.6667 15.3332 20.0697 15.3332 19.3333C15.3332 18.597 14.7362 18 13.9998 18C13.2635 18 12.6665 18.597 12.6665 19.3333C12.6665 20.0697 13.2635 20.6667 13.9998 20.6667Z" fill="#0098D7"/>
<path d="M14 16.6666C13.263 16.6666 12.6667 16.0696 12.6667 15.3333C12.6667 14.0826 13.6068 13.4192 14.2292 12.9798C14.9753 12.4537 15.3333 12.164 15.3333 11.3333C15.3333 10.5983 14.7357 9.99996 14 9.99996C13.2643 9.99996 12.6667 10.5983 12.6667 11.3333C12.6667 12.0696 12.0703 12.6666 11.3333 12.6666C10.5964 12.6666 10 12.0696 10 11.3333C10 9.12757 11.7943 7.3333 14 7.3333C16.2057 7.3333 18 9.12757 18 11.3333C18 13.5833 16.6016 14.5696 15.7669 15.1588C15.6185 15.2636 15.4245 15.4004 15.3242 15.4909C15.2461 16.153 14.6836 16.6666 14 16.6666Z" fill="#0098D7"/>
</svg>
