<svg width="40" height="40" viewBox="0 0 40 40" fill="none" xmlns="http://www.w3.org/2000/svg">
<g clip-path="url(#clip0)">
<path d="M7.63109 21.7542C7.3075 21.7542 7.04516 22.0166 7.04516 22.3402V23.0924C7.04516 23.4159 7.3075 23.6783 7.63109 23.6783C7.95477 23.6783 8.21703 23.4159 8.21703 23.0924V22.3402C8.21703 22.0166 7.95469 21.7542 7.63109 21.7542ZM37.9648 10.8251C37.7961 9.98329 37.4645 9.11141 36.9862 8.27235C36.8259 7.99126 36.468 7.89321 36.187 8.05352C35.9058 8.21376 35.8077 8.57157 35.968 8.85274C36.6223 10.0004 36.9681 11.2474 36.9169 12.2741C36.9134 12.3427 36.8758 12.3789 36.8431 12.3979C36.8372 12.4006 36.8316 12.4035 36.8258 12.4063C36.7942 12.4202 36.7504 12.4274 36.6995 12.3983C35.4801 11.7002 34.1806 10.1824 33.8114 9.73384C33.6641 9.55485 33.4251 9.4797 33.2019 9.54165C32.9787 9.60376 32.8129 9.79165 32.7793 10.0209C32.7275 10.3734 32.6382 10.7781 32.5238 11.1922C31.2402 10.8856 29.2519 9.86696 28.2777 8.75579C28.1665 8.62891 28.0059 8.5561 27.8371 8.5561C27.6684 8.5561 27.5077 8.62891 27.3965 8.75579C26.4223 9.86696 24.434 10.8856 23.1531 11.1915C23.036 10.7781 22.9467 10.3733 22.8949 10.0209C22.8612 9.79157 22.6955 9.60376 22.4723 9.54157C22.2493 9.47954 22.0102 9.55477 21.8628 9.73368C21.4935 10.1824 20.1939 11.7004 18.9745 12.3983C18.9238 12.4272 18.8783 12.4204 18.8476 12.4088C18.8394 12.4049 18.8313 12.4005 18.8229 12.3968C18.7829 12.3735 18.7609 12.3393 18.7584 12.2945C18.7423 12.0048 18.7567 11.7034 18.799 11.3958C18.8056 11.3677 18.8098 11.3389 18.8122 11.3098C19.0648 9.66266 20.103 7.84571 21.5551 6.61681C22.7818 5.5786 24.8451 4.4761 27.7085 5.12017C27.7932 5.13915 27.8809 5.13915 27.9656 5.12017C30.3291 4.58845 32.6105 5.20556 34.3903 6.85735C34.6273 7.07751 34.9981 7.06368 35.2184 6.82649C35.4385 6.58931 35.4247 6.21852 35.1874 5.99845C33.1483 4.10595 30.5426 3.38048 27.837 3.94891C25.2809 3.41251 22.786 4.03993 20.798 5.72227C19.2062 7.06946 18.072 8.98548 17.7066 10.8256C16.8039 11.203 16.116 11.9638 15.8259 12.883C14.8652 12.5728 13.8175 12.3801 12.6927 12.3338C12.6724 12.2435 12.6471 12.1546 12.6155 12.0677C12.2561 11.0803 11.2413 10.4752 9.94367 10.3392C9.04984 8.53595 7.48445 6.78618 5.69641 5.60642C4.47922 4.80329 2.82758 5.1429 2.0143 6.36313L0.599297 8.48696C0.229609 9.04173 0.138516 9.72266 0.349297 10.3552C0.559453 10.9861 1.03914 11.4748 1.66539 11.696C2.56859 12.0151 3.345 12.427 3.98109 12.9235C3.41055 13.7468 3.24789 14.6081 3.52727 15.3756C3.60148 15.5796 3.70508 15.7691 3.83609 15.9434C2.81641 17.1302 2.13727 18.5042 1.85477 19.9001C0.732812 20.4488 0 21.5981 0 22.8601C0 24.5156 1.24695 25.8993 2.85539 26.1234C3.415 27.6645 4.35906 29.027 5.57367 30.0988C4.63625 31.2081 3.99633 32.5283 3.71102 33.9516C3.59844 34.5133 3.74289 35.0905 4.10719 35.5351C4.47437 35.9831 5.01711 36.2402 5.59609 36.2402H6.21391C6.53758 36.2402 6.79984 35.9778 6.79984 35.6542C6.79984 35.3306 6.53758 35.0683 6.21391 35.0683H5.59609C5.36969 35.0683 5.15742 34.9677 5.01367 34.7923C4.87273 34.6203 4.8168 34.3979 4.86 34.1819C5.10914 32.9391 5.67242 31.7871 6.49789 30.8217C8.10297 31.931 10.0569 32.5831 12.1628 32.5831C14.2688 32.5831 16.2227 31.9309 17.8278 30.8216C18.6532 31.787 19.2165 32.939 19.4656 34.1818C19.5089 34.3978 19.4529 34.6203 19.312 34.7922C19.1682 34.9676 18.9559 35.0682 18.7295 35.0682H8.93648C8.61281 35.0682 8.35055 35.3306 8.35055 35.6541C8.35055 35.9777 8.61281 36.2401 8.93648 36.2401H18.7295C19.3085 36.2401 19.8512 35.9831 20.2184 35.535C20.5827 35.0904 20.7272 34.5132 20.6146 33.9515C20.3293 32.5282 19.6894 31.208 18.752 30.0987C19.6795 29.2802 20.4493 28.292 21.0106 27.1842C21.0891 27.2231 21.1771 27.2456 21.2705 27.2456H34.4039C34.9829 27.2456 35.5255 26.9886 35.8928 26.5406C36.2572 26.0959 36.4016 25.5188 36.2889 24.9571C36.0037 23.5338 35.3638 22.2136 34.4263 21.1043C35.6409 20.0326 36.585 18.67 37.1446 17.129C38.753 16.9049 40 15.5212 40 13.8656C40 12.5332 39.1796 11.3323 37.9648 10.8251ZM1.17188 22.8601C1.17188 22.2977 1.39891 21.7701 1.77844 21.3809C1.85039 21.6359 1.98734 21.8713 2.18094 22.0625C2.22133 22.1024 2.26398 22.1391 2.30789 22.1739C2.29141 22.4035 2.28227 22.6332 2.28227 22.8601C2.28227 23.5301 2.35148 24.1845 2.48328 24.8166C1.71437 24.493 1.17188 23.7354 1.17188 22.8601ZM17.5851 12.2636C17.5863 12.2955 17.5867 12.3276 17.5884 12.3593C17.6067 12.6905 17.748 12.9932 17.979 13.2172C17.9652 13.4232 17.9575 13.6302 17.9569 13.8363C17.628 13.6431 17.2836 13.4653 16.9245 13.3046C17.0373 12.8984 17.2693 12.5367 17.5851 12.2636ZM11.4572 12.3427C8.65672 12.497 6.34422 13.5626 4.67516 15.0812C4.65766 15.0465 4.64164 15.0113 4.62852 14.975C4.4093 14.3728 4.81828 13.7334 5.08156 13.4057C5.12422 13.3527 5.16953 13.3005 5.21609 13.2488C5.21719 13.2477 5.21836 13.2468 5.21945 13.2456C5.22117 13.2438 5.2225 13.2418 5.22422 13.24C5.74703 12.6629 6.50727 12.1745 7.39125 11.8527C9.145 11.2142 10.9829 11.4501 11.4572 12.3427ZM2.0557 10.5911C1.77281 10.4912 1.55602 10.2702 1.46102 9.98485C1.36531 9.69774 1.40672 9.38868 1.57445 9.13688L2.98984 7.01313C3.44641 6.32798 4.37117 6.13587 5.05133 6.5847C6.48141 7.52821 7.79164 8.92266 8.62273 10.3559C8.09445 10.4195 7.54422 10.5499 6.99031 10.7514C6.13617 11.0623 5.37047 11.5119 4.76453 12.0499C4.01602 11.4527 3.10781 10.9628 2.0557 10.5911ZM12.1628 31.4113C7.36086 31.4113 3.45414 27.5752 3.45414 22.8601C3.45414 22.7395 3.45766 22.6177 3.46297 22.4958C6.7243 22.1964 10.3767 20.1498 11.9239 18.9199C12.0645 18.8081 12.2611 18.8081 12.4018 18.92C13.9489 20.1498 17.6014 22.1965 20.8627 22.4958C20.868 22.6177 20.8714 22.7394 20.8714 22.8601C20.8714 27.5752 16.9647 31.4113 12.1628 31.4113ZM21.3215 21.2284C21.2757 21.2735 21.1774 21.348 21.0305 21.335C18.17 21.0939 14.6891 19.2412 13.131 18.0026C12.846 17.776 12.5044 17.6627 12.1627 17.6627C11.8211 17.6627 11.4795 17.7759 11.1945 18.0026C9.63648 19.2412 6.15547 21.0938 3.29492 21.335C3.14805 21.3477 3.04977 21.2734 3.00398 21.2284C2.95797 21.1829 2.88227 21.0846 2.89281 20.9366C2.90547 20.7588 2.92602 20.5806 2.95398 20.4026C2.95414 20.4015 2.95438 20.4004 2.95453 20.3993C3.17891 18.9763 3.88836 17.5633 5.00445 16.3896C5.03883 16.3622 5.0707 16.3305 5.09906 16.2945C5.10109 16.2919 5.10273 16.2891 5.10477 16.2865C6.7207 14.6433 9.14805 13.4945 12.1626 13.4945C13.5784 13.4945 14.8643 13.7484 15.9979 14.1873C16.0342 14.2062 16.0728 14.2214 16.1134 14.2324C16.8857 14.5429 17.5852 14.9402 18.2047 15.4019C18.2391 15.4351 18.2773 15.4641 18.3188 15.4881C20.0135 16.7938 21.0852 18.5883 21.3707 20.3991C21.3709 20.4005 21.3712 20.4017 21.3713 20.4031C21.3993 20.5809 21.4198 20.7589 21.4325 20.9366C21.4432 21.0845 21.3675 21.1829 21.3215 21.2284ZM35.1399 25.1874C35.1832 25.4034 35.1273 25.6259 34.9863 25.7977C34.8427 25.9731 34.6303 26.0738 34.4039 26.0738H21.7439C23.1877 25.7464 24.2789 24.4739 24.3231 22.9556C25.4399 23.3756 26.6175 23.5887 27.8372 23.5887C29.9431 23.5887 31.897 22.9365 33.5021 21.8273C34.3276 22.7926 34.8909 23.9445 35.1399 25.1874ZM22.0178 22.1747C22.0619 22.1399 22.1041 22.1024 22.1447 22.0625C22.3383 21.8714 22.4752 21.6359 22.5472 21.3809C22.9267 21.7702 23.1538 22.2977 23.1538 22.8601C23.1538 23.7354 22.6112 24.493 21.8423 24.8166C21.9741 24.1845 22.0434 23.5301 22.0434 22.8601C22.0433 22.6332 22.0341 22.4038 22.0178 22.1747ZM27.8372 22.4168C26.5107 22.4168 25.2411 22.1325 24.0598 21.5723C23.7514 20.8531 23.1916 20.2527 22.4707 19.9002C22.0798 17.9682 20.9287 16.0781 19.167 14.6687C19.1416 14.4009 19.1284 14.1318 19.1284 13.8656C19.1284 13.7672 19.1308 13.6685 19.1342 13.5698C19.2802 13.5432 19.423 13.4921 19.5566 13.4156C20.4497 12.9044 21.3375 12.062 21.9862 11.3684C21.9991 11.4158 22.0122 11.4634 22.0257 11.511C22.1975 12.1175 22.8114 12.4781 23.4228 12.332C24.7255 12.0209 26.6027 11.1199 27.8372 9.97852C29.0716 11.1199 30.9488 12.0209 32.2515 12.332C32.8634 12.4783 33.4767 12.1176 33.6486 11.5109C33.6621 11.4634 33.6753 11.4158 33.6881 11.3684C34.3367 12.062 35.2243 12.9041 36.1173 13.4153C36.2513 13.492 36.3941 13.543 36.5401 13.5695C36.5435 13.6683 36.5459 13.7671 36.5459 13.8656C36.5459 18.5807 32.6391 22.4168 27.8372 22.4168ZM37.5167 15.8222C37.6485 15.19 37.7177 14.5356 37.7177 13.8656C37.7177 13.6478 37.7095 13.4288 37.6948 13.2109C37.9284 12.9817 38.0703 12.6718 38.0872 12.3325C38.0883 12.31 38.0882 12.287 38.0891 12.2645C38.5455 12.6601 38.8281 13.24 38.8281 13.8656C38.8281 14.7409 38.2856 15.4985 37.5167 15.8222ZM32.3688 12.7598C32.0452 12.7598 31.7829 13.0221 31.7829 13.3457V14.098C31.7829 14.4216 32.0452 14.6839 32.3688 14.6839C32.6925 14.6839 32.9548 14.4216 32.9548 14.098V13.3457C32.9548 13.0221 32.6925 12.7598 32.3688 12.7598ZM29.417 13.6896C29.173 13.477 28.8029 13.5024 28.5902 13.7463C28.4001 13.9645 28.1256 14.0897 27.8372 14.0897C27.5487 14.0897 27.2743 13.9645 27.0841 13.7463C26.8715 13.5024 26.5013 13.477 26.2574 13.6896C26.0134 13.9023 25.9881 14.2724 26.2006 14.5163C26.6134 14.9899 27.2099 15.2615 27.8371 15.2615C28.4643 15.2615 29.0608 14.9899 29.4736 14.5163C29.6862 14.2724 29.6609 13.9022 29.417 13.6896ZM13.7425 22.684C13.4984 22.4714 13.1284 22.4968 12.9158 22.7408C12.7256 22.959 12.4512 23.0841 12.1627 23.0841C11.8744 23.0841 11.5998 22.959 11.4097 22.7408C11.197 22.4968 10.8269 22.4715 10.583 22.684C10.3391 22.8966 10.3136 23.2667 10.5262 23.5107C10.939 23.9844 11.5355 24.256 12.1627 24.256C12.7898 24.256 13.3863 23.9844 13.7991 23.5107C14.0119 23.2667 13.9864 22.8966 13.7425 22.684ZM23.3055 12.7598C22.9819 12.7598 22.7195 13.0221 22.7195 13.3457V14.098C22.7195 14.4216 22.9819 14.6839 23.3055 14.6839C23.6291 14.6839 23.8914 14.4216 23.8914 14.098V13.3457C23.8914 13.0221 23.6291 12.7598 23.3055 12.7598ZM16.6945 21.7542C16.3708 21.7542 16.1085 22.0166 16.1085 22.3402V23.0924C16.1085 23.4159 16.3708 23.6783 16.6945 23.6783C17.0181 23.6783 17.2804 23.4159 17.2804 23.0924V22.3402C17.2804 22.0166 17.0181 21.7542 16.6945 21.7542Z" fill="white"/>
</g>
<defs>
<clipPath id="clip0">
<rect width="40" height="40" fill="white"/>
</clipPath>
</defs>
</svg>
